<svg width="120" height="40" viewBox="0 0 120 40" fill="none" xmlns="http://www.w3.org/2000/svg">
<rect x="0.5" y="0.5" width="119" height="39" rx="5.5" fill="white"/>
<rect x="0.5" y="0.5" width="119" height="39" rx="5.5" stroke="black"/>
<path d="M24.7045 20.763C24.7166 19.8431 24.9669 18.9411 25.4321 18.141C25.8972 17.3409 26.5621 16.6687 27.3648 16.1869C26.8548 15.4758 26.1821 14.8907 25.4 14.4779C24.6178 14.065 23.7479 13.836 22.8592 13.8088C20.9635 13.6146 19.1258 14.9163 18.1598 14.9163C17.1751 14.9163 15.6878 13.8281 14.0862 13.8603C13.0502 13.893 12.0406 14.1871 11.1557 14.714C10.2708 15.2408 9.54075 15.9825 9.03674 16.8668C6.85352 20.5571 8.48201 25.9808 10.5734 28.9639C11.6197 30.4246 12.8426 32.0562 14.4428 31.9984C16.0086 31.9349 16.5934 31.0235 18.4835 31.0235C20.3561 31.0235 20.9048 31.9984 22.5374 31.9616C24.2176 31.9349 25.2762 30.4944 26.2859 29.0198C27.0377 27.979 27.6162 26.8287 28 25.6115C27.0238 25.2084 26.1908 24.5337 25.6048 23.6715C25.0187 22.8093 24.7056 21.7977 24.7045 20.763Z" fill="black"/>
<path d="M21.621 11.8471C22.5372 10.7734 22.9885 9.39335 22.8792 8C21.4796 8.14352 20.1867 8.7966 19.2582 9.82911C18.8043 10.3335 18.4566 10.9203 18.235 11.556C18.0135 12.1917 17.9224 12.8638 17.9671 13.5338C18.6672 13.5408 19.3597 13.3927 19.9927 13.1005C20.6256 12.8084 21.1824 12.3798 21.621 11.8471Z" fill="black"/>
<path d="M39.397 16.6538C38.811 16.6538 38.3027 16.519 37.8721 16.2495C37.4443 15.98 37.1147 15.5977 36.8833 15.1025C36.6519 14.6074 36.5361 14.0186 36.5361 13.3359V13.3271C36.5361 12.6416 36.6519 12.0513 36.8833 11.5562C37.1147 11.061 37.4443 10.6787 37.8721 10.4092C38.2998 10.1396 38.8081 10.0049 39.397 10.0049C39.8628 10.0049 40.2832 10.0972 40.6582 10.2817C41.0361 10.4634 41.3452 10.7153 41.5854 11.0376C41.8286 11.3599 41.9766 11.7305 42.0293 12.1494V12.1758H41.0493L41.0449 12.1582C40.9863 11.8975 40.8794 11.6719 40.7241 11.4814C40.5688 11.291 40.3784 11.1431 40.1528 11.0376C39.9272 10.9321 39.6753 10.8794 39.397 10.8794C39.019 10.8794 38.6909 10.979 38.4126 11.1782C38.1372 11.3774 37.9233 11.6602 37.771 12.0264C37.6216 12.3896 37.5469 12.8232 37.5469 13.3271V13.3359C37.5469 13.834 37.6216 14.2661 37.771 14.6323C37.9233 14.9985 38.1372 15.2812 38.4126 15.4805C38.6909 15.6797 39.0205 15.7793 39.4014 15.7793C39.6797 15.7793 39.9316 15.7324 40.1572 15.6387C40.3857 15.5449 40.5762 15.4116 40.7285 15.2388C40.8809 15.063 40.9849 14.8564 41.0405 14.6191L41.0493 14.6016H42.0337L42.0293 14.6235C41.9678 15.0308 41.8184 15.3867 41.5811 15.6914C41.3438 15.9961 41.0391 16.2334 40.667 16.4033C40.2949 16.5703 39.8716 16.6538 39.397 16.6538ZM45.2373 16.5923C44.7715 16.5923 44.3687 16.4927 44.0288 16.2935C43.6919 16.0942 43.4326 15.8101 43.251 15.4409C43.0693 15.0688 42.9785 14.6279 42.9785 14.1182V14.1094C42.9785 13.5967 43.0693 13.1558 43.251 12.7866C43.4355 12.4175 43.6963 12.1333 44.0332 11.9341C44.373 11.7349 44.7744 11.6353 45.2373 11.6353C45.7031 11.6353 46.1045 11.7349 46.4414 11.9341C46.7783 12.1304 47.0376 12.4146 47.2192 12.7866C47.4038 13.1558 47.4961 13.5967 47.4961 14.1094V14.1182C47.4961 14.6279 47.4038 15.0688 47.2192 15.4409C47.0376 15.8101 46.7783 16.0942 46.4414 16.2935C46.1074 16.4927 45.7061 16.5923 45.2373 16.5923ZM45.2373 15.7925C45.5098 15.7925 45.7412 15.7266 45.9316 15.5947C46.1221 15.46 46.2671 15.2681 46.3667 15.019C46.4663 14.77 46.5161 14.4697 46.5161 14.1182V14.1094C46.5161 13.7549 46.4663 13.4531 46.3667 13.2041C46.2671 12.9551 46.1221 12.7646 45.9316 12.6328C45.7412 12.498 45.5098 12.4307 45.2373 12.4307C44.9648 12.4307 44.7334 12.498 44.543 12.6328C44.3525 12.7646 44.2061 12.9551 44.1035 13.2041C44.0039 13.4531 43.9541 13.7549 43.9541 14.1094V14.1182C43.9541 14.4697 44.0039 14.77 44.1035 15.019C44.2061 15.2681 44.3525 15.46 44.543 15.5947C44.7334 15.7266 44.9648 15.7925 45.2373 15.7925ZM48.6299 16.5V11.7275H49.5835V12.4614H49.6582C49.7637 12.1978 49.9277 11.9941 50.1504 11.8506C50.376 11.707 50.6455 11.6353 50.959 11.6353C51.1758 11.6353 51.3706 11.6704 51.5435 11.7407C51.7163 11.811 51.8643 11.9106 51.9873 12.0396C52.1133 12.1655 52.2114 12.3149 52.2817 12.4878H52.3564C52.4355 12.3149 52.5469 12.1655 52.6904 12.0396C52.834 11.9106 53.001 11.811 53.1914 11.7407C53.3848 11.6704 53.5898 11.6353 53.8066 11.6353C54.1289 11.6353 54.4043 11.6982 54.6328 11.8242C54.8613 11.9473 55.0356 12.126 55.1558 12.3604C55.2759 12.5947 55.3359 12.8774 55.3359 13.2085V16.5H54.3823V13.437C54.3823 13.2173 54.3486 13.0356 54.2812 12.8921C54.2139 12.7456 54.1113 12.6357 53.9736 12.5625C53.8389 12.4893 53.6689 12.4526 53.4639 12.4526C53.2617 12.4526 53.0845 12.4995 52.9321 12.5933C52.7827 12.6841 52.6655 12.8071 52.5806 12.9624C52.4985 13.1147 52.4575 13.2876 52.4575 13.481V16.5H51.5039V13.3403C51.5039 13.1587 51.4658 13.002 51.3896 12.8701C51.3164 12.7354 51.2109 12.6328 51.0732 12.5625C50.9355 12.4893 50.7729 12.4526 50.5854 12.4526C50.395 12.4526 50.2236 12.5024 50.0713 12.6021C49.9219 12.7017 49.8032 12.8364 49.7153 13.0063C49.6274 13.1733 49.5835 13.3608 49.5835 13.5688V16.5H48.6299ZM56.6851 16.5V11.7275H57.6431V16.5H56.6851ZM57.1685 10.875C57.0044 10.875 56.8638 10.8164 56.7466 10.6992C56.6294 10.582 56.5708 10.4414 56.5708 10.2773C56.5708 10.1133 56.6294 9.97412 56.7466 9.85986C56.8638 9.74268 57.0044 9.68408 57.1685 9.68408C57.3325 9.68408 57.4731 9.74268 57.5903 9.85986C57.7075 9.97412 57.7661 10.1133 57.7661 10.2773C57.7661 10.4414 57.7075 10.582 57.5903 10.6992C57.4731 10.8164 57.3325 10.875 57.1685 10.875ZM59.0273 16.5V11.7275H59.981V12.4482H60.0557C60.1729 12.1934 60.3457 11.9941 60.5742 11.8506C60.8027 11.707 61.0913 11.6353 61.4399 11.6353C61.9761 11.6353 62.3862 11.7891 62.6704 12.0967C62.9546 12.4043 63.0967 12.8423 63.0967 13.4106V16.5H62.1387V13.6348C62.1387 13.2363 62.0552 12.9404 61.8882 12.7471C61.7241 12.5508 61.4663 12.4526 61.1147 12.4526C60.8833 12.4526 60.6826 12.5039 60.5127 12.6064C60.3428 12.7061 60.2109 12.8496 60.1172 13.0371C60.0264 13.2217 59.981 13.4429 59.981 13.7007V16.5H59.0273ZM66.4409 18.1831C66.0366 18.1831 65.6851 18.1274 65.3862 18.0161C65.0903 17.9048 64.856 17.7495 64.6831 17.5503C64.5103 17.3511 64.4048 17.1196 64.3667 16.856L64.3711 16.8472H65.3379L65.3423 16.856C65.3833 17.02 65.499 17.1548 65.6895 17.2603C65.8799 17.3657 66.1348 17.4185 66.4541 17.4185C66.8467 17.4185 67.1528 17.3291 67.3726 17.1504C67.5952 16.9717 67.7065 16.7212 67.7065 16.3989V15.4629H67.6318C67.5381 15.6328 67.418 15.7793 67.2715 15.9023C67.125 16.0225 66.958 16.1133 66.7705 16.1748C66.583 16.2363 66.3794 16.2671 66.1597 16.2671C65.7554 16.2671 65.4038 16.1704 65.105 15.9771C64.8091 15.7808 64.5806 15.5112 64.4194 15.1685C64.2612 14.8228 64.1821 14.4258 64.1821 13.9775V13.9688C64.1821 13.5146 64.2627 13.1133 64.4238 12.7646C64.585 12.4131 64.8149 12.1392 65.1138 11.9429C65.4126 11.7437 65.7686 11.644 66.1816 11.644C66.4043 11.644 66.6079 11.6792 66.7925 11.7495C66.98 11.8198 67.1455 11.9194 67.2891 12.0483C67.4326 12.1772 67.5513 12.3311 67.645 12.5098H67.7021V11.7275H68.6558V16.4033C68.6558 16.7637 68.5649 17.0771 68.3833 17.3438C68.2046 17.6104 67.9497 17.8169 67.6187 17.9634C67.2876 18.1099 66.895 18.1831 66.4409 18.1831ZM66.4277 15.4761C66.6973 15.4761 66.9287 15.4131 67.1221 15.2871C67.3154 15.1582 67.4634 14.981 67.5659 14.7554C67.6714 14.5298 67.7241 14.269 67.7241 13.9731V13.9644C67.7241 13.6714 67.6714 13.4106 67.5659 13.1821C67.4634 12.9536 67.3154 12.7749 67.1221 12.646C66.9287 12.5171 66.6973 12.4526 66.4277 12.4526C66.1582 12.4526 65.9282 12.5171 65.7378 12.646C65.5503 12.7749 65.4067 12.9536 65.3071 13.1821C65.2075 13.4077 65.1577 13.6685 65.1577 13.9644V13.9731C65.1577 14.269 65.2075 14.5298 65.3071 14.7554C65.4067 14.981 65.5503 15.1582 65.7378 15.2871C65.9282 15.4131 66.1582 15.4761 66.4277 15.4761ZM74.2192 16.5923C73.8354 16.5923 73.5015 16.5366 73.2173 16.4253C72.9331 16.311 72.7075 16.1543 72.5405 15.9551C72.3735 15.7529 72.2754 15.5186 72.2461 15.252V15.2432H73.2041V15.252C73.2656 15.4307 73.3828 15.5757 73.5557 15.687C73.7285 15.7983 73.957 15.854 74.2412 15.854C74.4375 15.854 74.6089 15.8262 74.7554 15.7705C74.9048 15.7148 75.022 15.6372 75.1069 15.5376C75.1919 15.438 75.2344 15.3237 75.2344 15.1948V15.186C75.2344 15.0366 75.1743 14.9106 75.0542 14.8081C74.9341 14.7056 74.7363 14.6221 74.4609 14.5576L73.6963 14.3818C73.3975 14.3145 73.1499 14.2222 72.9536 14.105C72.7573 13.9878 72.6123 13.8442 72.5186 13.6743C72.4248 13.5015 72.3779 13.2993 72.3779 13.0679V13.0635C72.3779 12.7852 72.457 12.5391 72.6152 12.3252C72.7734 12.1084 72.9917 11.9399 73.27 11.8198C73.5513 11.6968 73.8721 11.6353 74.2324 11.6353C74.5957 11.6353 74.9121 11.6924 75.1816 11.8066C75.4541 11.918 75.6694 12.0732 75.8276 12.2725C75.9858 12.4688 76.0796 12.6973 76.1089 12.958V12.9624H75.1948V12.9536C75.1509 12.7866 75.0454 12.6475 74.8784 12.5361C74.7144 12.4248 74.4976 12.3691 74.228 12.3691C74.0552 12.3691 73.9014 12.397 73.7666 12.4526C73.6318 12.5054 73.5249 12.5801 73.4458 12.6768C73.3696 12.7705 73.3315 12.8818 73.3315 13.0107V13.0195C73.3315 13.1191 73.3564 13.207 73.4062 13.2832C73.459 13.3564 73.541 13.4224 73.6523 13.481C73.7637 13.5366 73.9072 13.5864 74.083 13.6304L74.8433 13.8018C75.3003 13.9102 75.6401 14.0669 75.8628 14.272C76.0884 14.4771 76.2012 14.7524 76.2012 15.0981V15.1069C76.2012 15.3999 76.1147 15.6592 75.9419 15.8848C75.769 16.1074 75.5332 16.2817 75.2344 16.4077C74.9385 16.5308 74.6001 16.5923 74.2192 16.5923ZM79.3564 16.5923C78.8906 16.5923 78.4878 16.4927 78.1479 16.2935C77.811 16.0942 77.5518 15.8101 77.3701 15.4409C77.1885 15.0688 77.0977 14.6279 77.0977 14.1182V14.1094C77.0977 13.5967 77.1885 13.1558 77.3701 12.7866C77.5547 12.4175 77.8154 12.1333 78.1523 11.9341C78.4922 11.7349 78.8936 11.6353 79.3564 11.6353C79.8223 11.6353 80.2236 11.7349 80.5605 11.9341C80.8975 12.1304 81.1567 12.4146 81.3384 12.7866C81.5229 13.1558 81.6152 13.5967 81.6152 14.1094V14.1182C81.6152 14.6279 81.5229 15.0688 81.3384 15.4409C81.1567 15.8101 80.8975 16.0942 80.5605 16.2935C80.2266 16.4927 79.8252 16.5923 79.3564 16.5923ZM79.3564 15.7925C79.6289 15.7925 79.8604 15.7266 80.0508 15.5947C80.2412 15.46 80.3862 15.2681 80.4858 15.019C80.5854 14.77 80.6353 14.4697 80.6353 14.1182V14.1094C80.6353 13.7549 80.5854 13.4531 80.4858 13.2041C80.3862 12.9551 80.2412 12.7646 80.0508 12.6328C79.8604 12.498 79.6289 12.4307 79.3564 12.4307C79.084 12.4307 78.8525 12.498 78.6621 12.6328C78.4717 12.7646 78.3252 12.9551 78.2227 13.2041C78.123 13.4531 78.0732 13.7549 78.0732 14.1094V14.1182C78.0732 14.4697 78.123 14.77 78.2227 15.019C78.3252 15.2681 78.4717 15.46 78.6621 15.5947C78.8525 15.7266 79.084 15.7925 79.3564 15.7925ZM84.7705 16.5923C84.3047 16.5923 83.9019 16.4927 83.562 16.2935C83.2251 16.0942 82.9658 15.8101 82.7842 15.4409C82.6025 15.0688 82.5117 14.6279 82.5117 14.1182V14.1094C82.5117 13.5967 82.6025 13.1558 82.7842 12.7866C82.9688 12.4175 83.2295 12.1333 83.5664 11.9341C83.9062 11.7349 84.3076 11.6353 84.7705 11.6353C85.2363 11.6353 85.6377 11.7349 85.9746 11.9341C86.3115 12.1304 86.5708 12.4146 86.7524 12.7866C86.937 13.1558 87.0293 13.5967 87.0293 14.1094V14.1182C87.0293 14.6279 86.937 15.0688 86.7524 15.4409C86.5708 15.8101 86.3115 16.0942 85.9746 16.2935C85.6406 16.4927 85.2393 16.5923 84.7705 16.5923ZM84.7705 15.7925C85.043 15.7925 85.2744 15.7266 85.4648 15.5947C85.6553 15.46 85.8003 15.2681 85.8999 15.019C85.9995 14.77 86.0493 14.4697 86.0493 14.1182V14.1094C86.0493 13.7549 85.9995 13.4531 85.8999 13.2041C85.8003 12.9551 85.6553 12.7646 85.4648 12.6328C85.2744 12.498 85.043 12.4307 84.7705 12.4307C84.498 12.4307 84.2666 12.498 84.0762 12.6328C83.8857 12.7646 83.7393 12.9551 83.6367 13.2041C83.5371 13.4531 83.4873 13.7549 83.4873 14.1094V14.1182C83.4873 14.4697 83.5371 14.77 83.6367 15.019C83.7393 15.2681 83.8857 15.46 84.0762 15.5947C84.2666 15.7266 84.498 15.7925 84.7705 15.7925ZM88.1631 16.5V11.7275H89.1167V12.4482H89.1914C89.3086 12.1934 89.4814 11.9941 89.71 11.8506C89.9385 11.707 90.2271 11.6353 90.5757 11.6353C91.1118 11.6353 91.522 11.7891 91.8062 12.0967C92.0903 12.4043 92.2324 12.8423 92.2324 13.4106V16.5H91.2744V13.6348C91.2744 13.2363 91.1909 12.9404 91.0239 12.7471C90.8599 12.5508 90.6021 12.4526 90.2505 12.4526C90.019 12.4526 89.8184 12.5039 89.6484 12.6064C89.4785 12.7061 89.3467 12.8496 89.2529 13.0371C89.1621 13.2217 89.1167 13.4429 89.1167 13.7007V16.5H88.1631Z" fill="black"/>
<path d="M36.4785 29.5L40.04 19.6357H41.2773V21.3652H40.8125L38.0918 29.5H36.4785ZM38.1943 26.834L38.625 25.6035H43.1162L43.5469 26.834H38.1943ZM43.6426 29.5L40.9287 21.3652V19.6357H41.7012L45.2559 29.5H43.6426ZM46.3308 31.9746V22.0762H47.8142V23.2451H47.9304C48.0717 22.9717 48.254 22.7393 48.4773 22.5479C48.7051 22.3564 48.9649 22.2083 49.2566 22.1035C49.5482 21.9987 49.8672 21.9463 50.2136 21.9463C50.8379 21.9463 51.3803 22.1058 51.8405 22.4248C52.3008 22.7393 52.6563 23.1836 52.907 23.7578C53.1622 24.3275 53.2898 25.002 53.2898 25.7812V25.7949C53.2898 26.5788 53.1644 27.2578 52.9138 27.832C52.6631 28.4017 52.3077 28.8438 51.8474 29.1582C51.3871 29.4681 50.8425 29.623 50.2136 29.623C49.8718 29.623 49.5528 29.5706 49.2566 29.4658C48.9603 29.3564 48.6983 29.2061 48.4704 29.0146C48.2426 28.8232 48.0626 28.5931 47.9304 28.3242H47.8142V31.9746H46.3308ZM49.7898 28.3516C50.2045 28.3516 50.5599 28.249 50.8562 28.0439C51.1524 27.8389 51.378 27.5449 51.5329 27.1621C51.6924 26.7793 51.7722 26.3236 51.7722 25.7949V25.7812C51.7722 25.248 51.6924 24.79 51.5329 24.4072C51.378 24.0244 51.1524 23.7305 50.8562 23.5254C50.5599 23.3203 50.2045 23.2178 49.7898 23.2178C49.3796 23.2178 49.0241 23.3226 48.7234 23.5322C48.4226 23.7373 48.1924 24.0312 48.0329 24.4141C47.8734 24.7923 47.7937 25.248 47.7937 25.7812V25.7949C47.7937 26.319 47.8734 26.7725 48.0329 27.1553C48.1924 27.5381 48.4226 27.8343 48.7234 28.0439C49.0241 28.249 49.3796 28.3516 49.7898 28.3516ZM54.5971 31.9746V22.0762H56.0805V23.2451H56.1967C56.338 22.9717 56.5203 22.7393 56.7436 22.5479C56.9715 22.3564 57.2312 22.2083 57.5229 22.1035C57.8146 21.9987 58.1336 21.9463 58.4799 21.9463C59.1043 21.9463 59.6466 22.1058 60.1069 22.4248C60.5672 22.7393 60.9226 23.1836 61.1733 23.7578C61.4285 24.3275 61.5561 25.002 61.5561 25.7812V25.7949C61.5561 26.5788 61.4308 27.2578 61.1801 27.832C60.9295 28.4017 60.574 28.8438 60.1137 29.1582C59.6534 29.4681 59.1088 29.623 58.4799 29.623C58.1381 29.623 57.8191 29.5706 57.5229 29.4658C57.2267 29.3564 56.9646 29.2061 56.7368 29.0146C56.5089 28.8232 56.3289 28.5931 56.1967 28.3242H56.0805V31.9746H54.5971ZM58.0561 28.3516C58.4708 28.3516 58.8263 28.249 59.1225 28.0439C59.4187 27.8389 59.6443 27.5449 59.7993 27.1621C59.9588 26.7793 60.0385 26.3236 60.0385 25.7949V25.7812C60.0385 25.248 59.9588 24.79 59.7993 24.4072C59.6443 24.0244 59.4187 23.7305 59.1225 23.5254C58.8263 23.3203 58.4708 23.2178 58.0561 23.2178C57.6459 23.2178 57.2905 23.3226 56.9897 23.5322C56.6889 23.7373 56.4588 24.0312 56.2993 24.4141C56.1398 24.7923 56.06 25.248 56.06 25.7812V25.7949C56.06 26.319 56.1398 26.7725 56.2993 27.1553C56.4588 27.5381 56.6889 27.8343 56.9897 28.0439C57.2905 28.249 57.6459 28.3516 58.0561 28.3516ZM69.7147 29.7393C68.9719 29.7393 68.3248 29.623 67.7733 29.3906C67.2219 29.1536 66.7867 28.8255 66.4677 28.4062C66.1486 27.987 65.9664 27.5016 65.9208 26.9502L65.9139 26.8613H67.4247L67.4315 26.9365C67.4634 27.2327 67.5796 27.4902 67.7802 27.709C67.9852 27.9277 68.2587 28.0986 68.6005 28.2217C68.9468 28.3447 69.341 28.4062 69.7831 28.4062C70.1978 28.4062 70.5669 28.3402 70.8905 28.208C71.2141 28.0758 71.467 27.8936 71.6493 27.6611C71.8361 27.4287 71.9296 27.1621 71.9296 26.8613V26.8545C71.9296 26.4762 71.786 26.1618 71.4989 25.9111C71.2118 25.6605 70.7424 25.4645 70.0907 25.3232L69.0106 25.0977C68.0126 24.8835 67.2857 24.5439 66.83 24.0791C66.3742 23.6097 66.1464 23.0104 66.1464 22.2812V22.2744C66.1509 21.7048 66.3036 21.2035 66.6044 20.7705C66.9097 20.3376 67.3313 20.0003 67.869 19.7588C68.4068 19.5173 69.0243 19.3965 69.7216 19.3965C70.4188 19.3965 71.0272 19.5173 71.5468 19.7588C72.0708 19.9958 72.4833 20.3193 72.7841 20.7295C73.0894 21.1396 73.2603 21.6022 73.2968 22.1172L73.3036 22.2061H71.8065L71.7929 22.1172C71.7518 21.8483 71.6402 21.609 71.4579 21.3994C71.2802 21.1898 71.0409 21.0257 70.7401 20.9072C70.4439 20.7842 70.0975 20.7249 69.7011 20.7295C69.3182 20.7295 68.9764 20.7887 68.6757 20.9072C68.3749 21.0212 68.1356 21.1875 67.9579 21.4062C67.7847 21.625 67.6981 21.8893 67.6981 22.1992V22.2061C67.6981 22.5706 67.8371 22.876 68.1151 23.1221C68.3977 23.3636 68.8557 23.5527 69.4891 23.6895L70.5692 23.9287C71.2574 24.0745 71.8156 24.2682 72.244 24.5098C72.6724 24.7513 72.9846 25.0498 73.1805 25.4053C73.3811 25.7562 73.4813 26.1755 73.4813 26.6631V26.6699C73.4813 27.2988 73.3264 27.8434 73.0165 28.3037C72.7111 28.7594 72.2759 29.1126 71.7108 29.3633C71.1457 29.6139 70.4804 29.7393 69.7147 29.7393ZM77.6598 29.5479C76.8486 29.5479 76.2607 29.3929 75.8961 29.083C75.5361 28.7686 75.3561 28.2559 75.3561 27.5449V23.2451H74.1939V22.0762H75.3561V20.2031H76.8736V22.0762H78.4664V23.2451H76.8736V27.1826C76.8736 27.5837 76.9534 27.873 77.1129 28.0508C77.2724 28.224 77.5367 28.3105 77.9059 28.3105C78.0152 28.3105 78.1087 28.3083 78.1861 28.3037C78.2682 28.2992 78.3616 28.2923 78.4664 28.2832V29.4727C78.3479 29.4909 78.2203 29.5068 78.0836 29.5205C77.9469 29.5387 77.8056 29.5479 77.6598 29.5479ZM82.7952 29.6436C82.0706 29.6436 81.444 29.4886 80.9154 29.1787C80.3913 28.8688 79.9879 28.4268 79.7054 27.8525C79.4228 27.2738 79.2816 26.5879 79.2816 25.7949V25.7812C79.2816 24.9837 79.4228 24.2979 79.7054 23.7236C79.9925 23.1494 80.3981 22.7074 80.9222 22.3975C81.4508 22.0876 82.0752 21.9326 82.7952 21.9326C83.5198 21.9326 84.1442 22.0876 84.6683 22.3975C85.1924 22.7028 85.5957 23.1449 85.8782 23.7236C86.1654 24.2979 86.3089 24.9837 86.3089 25.7812V25.7949C86.3089 26.5879 86.1654 27.2738 85.8782 27.8525C85.5957 28.4268 85.1924 28.8688 84.6683 29.1787C84.1488 29.4886 83.5244 29.6436 82.7952 29.6436ZM82.7952 28.3994C83.2191 28.3994 83.5791 28.2969 83.8753 28.0918C84.1715 27.8822 84.3971 27.5837 84.5521 27.1963C84.707 26.8089 84.7845 26.3418 84.7845 25.7949V25.7812C84.7845 25.2298 84.707 24.7604 84.5521 24.373C84.3971 23.9857 84.1715 23.6895 83.8753 23.4844C83.5791 23.2747 83.2191 23.1699 82.7952 23.1699C82.3714 23.1699 82.0114 23.2747 81.7152 23.4844C81.4189 23.6895 81.1911 23.9857 81.0316 24.373C80.8766 24.7604 80.7991 25.2298 80.7991 25.7812V25.7949C80.7991 26.3418 80.8766 26.8089 81.0316 27.1963C81.1911 27.5837 81.4189 27.8822 81.7152 28.0918C82.0114 28.2969 82.3714 28.3994 82.7952 28.3994ZM87.6026 29.5V22.0762H89.086V23.1973H89.2022C89.3343 22.8008 89.5668 22.4932 89.8995 22.2744C90.2367 22.0557 90.6514 21.9463 91.1436 21.9463C91.2666 21.9463 91.3874 21.9531 91.5059 21.9668C91.6244 21.9805 91.7201 21.9964 91.793 22.0146V23.3818C91.6608 23.3545 91.5287 23.334 91.3965 23.3203C91.2689 23.3066 91.1345 23.2998 90.9932 23.2998C90.6149 23.2998 90.2823 23.3727 89.9952 23.5186C89.7126 23.6644 89.4893 23.8695 89.3252 24.1338C89.1657 24.3936 89.086 24.7035 89.086 25.0635V29.5H87.6026ZM95.6775 29.6436C94.9529 29.6436 94.3308 29.4886 93.8113 29.1787C93.2918 28.8643 92.8907 28.4199 92.6082 27.8457C92.3302 27.2715 92.1912 26.5924 92.1912 25.8086V25.8018C92.1912 25.027 92.3302 24.3503 92.6082 23.7715C92.8907 23.1927 93.2872 22.7415 93.7976 22.418C94.3126 22.0944 94.9142 21.9326 95.6023 21.9326C96.295 21.9326 96.8897 22.0876 97.3865 22.3975C97.8878 22.7074 98.2729 23.1426 98.5418 23.7031C98.8106 24.2591 98.9451 24.9108 98.9451 25.6582V26.1777H92.9431V25.1182H98.2068L97.4959 26.1025V25.5078C97.4959 24.9792 97.4138 24.5417 97.2498 24.1953C97.0903 23.8444 96.8692 23.5824 96.5867 23.4092C96.3041 23.236 95.9783 23.1494 95.6091 23.1494C95.24 23.1494 94.9096 23.2406 94.6179 23.4229C94.3308 23.6006 94.103 23.8649 93.9343 24.2158C93.7703 24.5667 93.6882 24.9974 93.6882 25.5078V26.1025C93.6882 26.5902 93.7703 27.0072 93.9343 27.3535C94.0984 27.6999 94.3308 27.9642 94.6316 28.1465C94.9369 28.3288 95.297 28.4199 95.7117 28.4199C96.0307 28.4199 96.3041 28.3766 96.532 28.29C96.7644 28.1989 96.9535 28.0872 97.0994 27.9551C97.2498 27.8229 97.3523 27.693 97.407 27.5654L97.4343 27.5107H98.8699L98.8562 27.5723C98.7924 27.8184 98.6808 28.0645 98.5213 28.3105C98.3617 28.5521 98.1498 28.7731 97.8855 28.9736C97.6257 29.1742 97.3113 29.3359 96.9422 29.459C96.5776 29.582 96.156 29.6436 95.6775 29.6436Z" fill="black"/>
</svg>
