<svg width="120" height="40" viewBox="0 0 120 40" fill="none" xmlns="http://www.w3.org/2000/svg">
<rect x="0.5" y="0.5" width="119" height="39" rx="5.5" fill="white"/>
<rect x="0.5" y="0.5" width="119" height="39" rx="5.5" stroke="black"/>
<path d="M39.397 16.6538C38.811 16.6538 38.3027 16.519 37.8721 16.2495C37.4443 15.98 37.1147 15.5977 36.8833 15.1025C36.6519 14.6074 36.5361 14.0186 36.5361 13.3359V13.3271C36.5361 12.6416 36.6519 12.0513 36.8833 11.5562C37.1147 11.061 37.4443 10.6787 37.8721 10.4092C38.2998 10.1396 38.8081 10.0049 39.397 10.0049C39.8628 10.0049 40.2832 10.0972 40.6582 10.2817C41.0361 10.4634 41.3452 10.7153 41.5854 11.0376C41.8286 11.3599 41.9766 11.7305 42.0293 12.1494V12.1758H41.0493L41.0449 12.1582C40.9863 11.8975 40.8794 11.6719 40.7241 11.4814C40.5688 11.291 40.3784 11.1431 40.1528 11.0376C39.9272 10.9321 39.6753 10.8794 39.397 10.8794C39.019 10.8794 38.6909 10.979 38.4126 11.1782C38.1372 11.3774 37.9233 11.6602 37.771 12.0264C37.6216 12.3896 37.5469 12.8232 37.5469 13.3271V13.3359C37.5469 13.834 37.6216 14.2661 37.771 14.6323C37.9233 14.9985 38.1372 15.2812 38.4126 15.4805C38.6909 15.6797 39.0205 15.7793 39.4014 15.7793C39.6797 15.7793 39.9316 15.7324 40.1572 15.6387C40.3857 15.5449 40.5762 15.4116 40.7285 15.2388C40.8809 15.063 40.9849 14.8564 41.0405 14.6191L41.0493 14.6016H42.0337L42.0293 14.6235C41.9678 15.0308 41.8184 15.3867 41.5811 15.6914C41.3438 15.9961 41.0391 16.2334 40.667 16.4033C40.2949 16.5703 39.8716 16.6538 39.397 16.6538ZM45.2373 16.5923C44.7715 16.5923 44.3687 16.4927 44.0288 16.2935C43.6919 16.0942 43.4326 15.8101 43.251 15.4409C43.0693 15.0688 42.9785 14.6279 42.9785 14.1182V14.1094C42.9785 13.5967 43.0693 13.1558 43.251 12.7866C43.4355 12.4175 43.6963 12.1333 44.0332 11.9341C44.373 11.7349 44.7744 11.6353 45.2373 11.6353C45.7031 11.6353 46.1045 11.7349 46.4414 11.9341C46.7783 12.1304 47.0376 12.4146 47.2192 12.7866C47.4038 13.1558 47.4961 13.5967 47.4961 14.1094V14.1182C47.4961 14.6279 47.4038 15.0688 47.2192 15.4409C47.0376 15.8101 46.7783 16.0942 46.4414 16.2935C46.1074 16.4927 45.7061 16.5923 45.2373 16.5923ZM45.2373 15.7925C45.5098 15.7925 45.7412 15.7266 45.9316 15.5947C46.1221 15.46 46.2671 15.2681 46.3667 15.019C46.4663 14.77 46.5161 14.4697 46.5161 14.1182V14.1094C46.5161 13.7549 46.4663 13.4531 46.3667 13.2041C46.2671 12.9551 46.1221 12.7646 45.9316 12.6328C45.7412 12.498 45.5098 12.4307 45.2373 12.4307C44.9648 12.4307 44.7334 12.498 44.543 12.6328C44.3525 12.7646 44.2061 12.9551 44.1035 13.2041C44.0039 13.4531 43.9541 13.7549 43.9541 14.1094V14.1182C43.9541 14.4697 44.0039 14.77 44.1035 15.019C44.2061 15.2681 44.3525 15.46 44.543 15.5947C44.7334 15.7266 44.9648 15.7925 45.2373 15.7925ZM48.6299 16.5V11.7275H49.5835V12.4614H49.6582C49.7637 12.1978 49.9277 11.9941 50.1504 11.8506C50.376 11.707 50.6455 11.6353 50.959 11.6353C51.1758 11.6353 51.3706 11.6704 51.5435 11.7407C51.7163 11.811 51.8643 11.9106 51.9873 12.0396C52.1133 12.1655 52.2114 12.3149 52.2817 12.4878H52.3564C52.4355 12.3149 52.5469 12.1655 52.6904 12.0396C52.834 11.9106 53.001 11.811 53.1914 11.7407C53.3848 11.6704 53.5898 11.6353 53.8066 11.6353C54.1289 11.6353 54.4043 11.6982 54.6328 11.8242C54.8613 11.9473 55.0356 12.126 55.1558 12.3604C55.2759 12.5947 55.3359 12.8774 55.3359 13.2085V16.5H54.3823V13.437C54.3823 13.2173 54.3486 13.0356 54.2812 12.8921C54.2139 12.7456 54.1113 12.6357 53.9736 12.5625C53.8389 12.4893 53.6689 12.4526 53.4639 12.4526C53.2617 12.4526 53.0845 12.4995 52.9321 12.5933C52.7827 12.6841 52.6655 12.8071 52.5806 12.9624C52.4985 13.1147 52.4575 13.2876 52.4575 13.481V16.5H51.5039V13.3403C51.5039 13.1587 51.4658 13.002 51.3896 12.8701C51.3164 12.7354 51.2109 12.6328 51.0732 12.5625C50.9355 12.4893 50.7729 12.4526 50.5854 12.4526C50.395 12.4526 50.2236 12.5024 50.0713 12.6021C49.9219 12.7017 49.8032 12.8364 49.7153 13.0063C49.6274 13.1733 49.5835 13.3608 49.5835 13.5688V16.5H48.6299ZM56.6851 16.5V11.7275H57.6431V16.5H56.6851ZM57.1685 10.875C57.0044 10.875 56.8638 10.8164 56.7466 10.6992C56.6294 10.582 56.5708 10.4414 56.5708 10.2773C56.5708 10.1133 56.6294 9.97412 56.7466 9.85986C56.8638 9.74268 57.0044 9.68408 57.1685 9.68408C57.3325 9.68408 57.4731 9.74268 57.5903 9.85986C57.7075 9.97412 57.7661 10.1133 57.7661 10.2773C57.7661 10.4414 57.7075 10.582 57.5903 10.6992C57.4731 10.8164 57.3325 10.875 57.1685 10.875ZM59.0273 16.5V11.7275H59.981V12.4482H60.0557C60.1729 12.1934 60.3457 11.9941 60.5742 11.8506C60.8027 11.707 61.0913 11.6353 61.4399 11.6353C61.9761 11.6353 62.3862 11.7891 62.6704 12.0967C62.9546 12.4043 63.0967 12.8423 63.0967 13.4106V16.5H62.1387V13.6348C62.1387 13.2363 62.0552 12.9404 61.8882 12.7471C61.7241 12.5508 61.4663 12.4526 61.1147 12.4526C60.8833 12.4526 60.6826 12.5039 60.5127 12.6064C60.3428 12.7061 60.2109 12.8496 60.1172 13.0371C60.0264 13.2217 59.981 13.4429 59.981 13.7007V16.5H59.0273ZM66.4409 18.1831C66.0366 18.1831 65.6851 18.1274 65.3862 18.0161C65.0903 17.9048 64.856 17.7495 64.6831 17.5503C64.5103 17.3511 64.4048 17.1196 64.3667 16.856L64.3711 16.8472H65.3379L65.3423 16.856C65.3833 17.02 65.499 17.1548 65.6895 17.2603C65.8799 17.3657 66.1348 17.4185 66.4541 17.4185C66.8467 17.4185 67.1528 17.3291 67.3726 17.1504C67.5952 16.9717 67.7065 16.7212 67.7065 16.3989V15.4629H67.6318C67.5381 15.6328 67.418 15.7793 67.2715 15.9023C67.125 16.0225 66.958 16.1133 66.7705 16.1748C66.583 16.2363 66.3794 16.2671 66.1597 16.2671C65.7554 16.2671 65.4038 16.1704 65.105 15.9771C64.8091 15.7808 64.5806 15.5112 64.4194 15.1685C64.2612 14.8228 64.1821 14.4258 64.1821 13.9775V13.9688C64.1821 13.5146 64.2627 13.1133 64.4238 12.7646C64.585 12.4131 64.8149 12.1392 65.1138 11.9429C65.4126 11.7437 65.7686 11.644 66.1816 11.644C66.4043 11.644 66.6079 11.6792 66.7925 11.7495C66.98 11.8198 67.1455 11.9194 67.2891 12.0483C67.4326 12.1772 67.5513 12.3311 67.645 12.5098H67.7021V11.7275H68.6558V16.4033C68.6558 16.7637 68.5649 17.0771 68.3833 17.3438C68.2046 17.6104 67.9497 17.8169 67.6187 17.9634C67.2876 18.1099 66.895 18.1831 66.4409 18.1831ZM66.4277 15.4761C66.6973 15.4761 66.9287 15.4131 67.1221 15.2871C67.3154 15.1582 67.4634 14.981 67.5659 14.7554C67.6714 14.5298 67.7241 14.269 67.7241 13.9731V13.9644C67.7241 13.6714 67.6714 13.4106 67.5659 13.1821C67.4634 12.9536 67.3154 12.7749 67.1221 12.646C66.9287 12.5171 66.6973 12.4526 66.4277 12.4526C66.1582 12.4526 65.9282 12.5171 65.7378 12.646C65.5503 12.7749 65.4067 12.9536 65.3071 13.1821C65.2075 13.4077 65.1577 13.6685 65.1577 13.9644V13.9731C65.1577 14.269 65.2075 14.5298 65.3071 14.7554C65.4067 14.981 65.5503 15.1582 65.7378 15.2871C65.9282 15.4131 66.1582 15.4761 66.4277 15.4761ZM74.2192 16.5923C73.8354 16.5923 73.5015 16.5366 73.2173 16.4253C72.9331 16.311 72.7075 16.1543 72.5405 15.9551C72.3735 15.7529 72.2754 15.5186 72.2461 15.252V15.2432H73.2041V15.252C73.2656 15.4307 73.3828 15.5757 73.5557 15.687C73.7285 15.7983 73.957 15.854 74.2412 15.854C74.4375 15.854 74.6089 15.8262 74.7554 15.7705C74.9048 15.7148 75.022 15.6372 75.1069 15.5376C75.1919 15.438 75.2344 15.3237 75.2344 15.1948V15.186C75.2344 15.0366 75.1743 14.9106 75.0542 14.8081C74.9341 14.7056 74.7363 14.6221 74.4609 14.5576L73.6963 14.3818C73.3975 14.3145 73.1499 14.2222 72.9536 14.105C72.7573 13.9878 72.6123 13.8442 72.5186 13.6743C72.4248 13.5015 72.3779 13.2993 72.3779 13.0679V13.0635C72.3779 12.7852 72.457 12.5391 72.6152 12.3252C72.7734 12.1084 72.9917 11.9399 73.27 11.8198C73.5513 11.6968 73.8721 11.6353 74.2324 11.6353C74.5957 11.6353 74.9121 11.6924 75.1816 11.8066C75.4541 11.918 75.6694 12.0732 75.8276 12.2725C75.9858 12.4688 76.0796 12.6973 76.1089 12.958V12.9624H75.1948V12.9536C75.1509 12.7866 75.0454 12.6475 74.8784 12.5361C74.7144 12.4248 74.4976 12.3691 74.228 12.3691C74.0552 12.3691 73.9014 12.397 73.7666 12.4526C73.6318 12.5054 73.5249 12.5801 73.4458 12.6768C73.3696 12.7705 73.3315 12.8818 73.3315 13.0107V13.0195C73.3315 13.1191 73.3564 13.207 73.4062 13.2832C73.459 13.3564 73.541 13.4224 73.6523 13.481C73.7637 13.5366 73.9072 13.5864 74.083 13.6304L74.8433 13.8018C75.3003 13.9102 75.6401 14.0669 75.8628 14.272C76.0884 14.4771 76.2012 14.7524 76.2012 15.0981V15.1069C76.2012 15.3999 76.1147 15.6592 75.9419 15.8848C75.769 16.1074 75.5332 16.2817 75.2344 16.4077C74.9385 16.5308 74.6001 16.5923 74.2192 16.5923ZM79.3564 16.5923C78.8906 16.5923 78.4878 16.4927 78.1479 16.2935C77.811 16.0942 77.5518 15.8101 77.3701 15.4409C77.1885 15.0688 77.0977 14.6279 77.0977 14.1182V14.1094C77.0977 13.5967 77.1885 13.1558 77.3701 12.7866C77.5547 12.4175 77.8154 12.1333 78.1523 11.9341C78.4922 11.7349 78.8936 11.6353 79.3564 11.6353C79.8223 11.6353 80.2236 11.7349 80.5605 11.9341C80.8975 12.1304 81.1567 12.4146 81.3384 12.7866C81.5229 13.1558 81.6152 13.5967 81.6152 14.1094V14.1182C81.6152 14.6279 81.5229 15.0688 81.3384 15.4409C81.1567 15.8101 80.8975 16.0942 80.5605 16.2935C80.2266 16.4927 79.8252 16.5923 79.3564 16.5923ZM79.3564 15.7925C79.6289 15.7925 79.8604 15.7266 80.0508 15.5947C80.2412 15.46 80.3862 15.2681 80.4858 15.019C80.5854 14.77 80.6353 14.4697 80.6353 14.1182V14.1094C80.6353 13.7549 80.5854 13.4531 80.4858 13.2041C80.3862 12.9551 80.2412 12.7646 80.0508 12.6328C79.8604 12.498 79.6289 12.4307 79.3564 12.4307C79.084 12.4307 78.8525 12.498 78.6621 12.6328C78.4717 12.7646 78.3252 12.9551 78.2227 13.2041C78.123 13.4531 78.0732 13.7549 78.0732 14.1094V14.1182C78.0732 14.4697 78.123 14.77 78.2227 15.019C78.3252 15.2681 78.4717 15.46 78.6621 15.5947C78.8525 15.7266 79.084 15.7925 79.3564 15.7925ZM84.7705 16.5923C84.3047 16.5923 83.9019 16.4927 83.562 16.2935C83.2251 16.0942 82.9658 15.8101 82.7842 15.4409C82.6025 15.0688 82.5117 14.6279 82.5117 14.1182V14.1094C82.5117 13.5967 82.6025 13.1558 82.7842 12.7866C82.9688 12.4175 83.2295 12.1333 83.5664 11.9341C83.9062 11.7349 84.3076 11.6353 84.7705 11.6353C85.2363 11.6353 85.6377 11.7349 85.9746 11.9341C86.3115 12.1304 86.5708 12.4146 86.7524 12.7866C86.937 13.1558 87.0293 13.5967 87.0293 14.1094V14.1182C87.0293 14.6279 86.937 15.0688 86.7524 15.4409C86.5708 15.8101 86.3115 16.0942 85.9746 16.2935C85.6406 16.4927 85.2393 16.5923 84.7705 16.5923ZM84.7705 15.7925C85.043 15.7925 85.2744 15.7266 85.4648 15.5947C85.6553 15.46 85.8003 15.2681 85.8999 15.019C85.9995 14.77 86.0493 14.4697 86.0493 14.1182V14.1094C86.0493 13.7549 85.9995 13.4531 85.8999 13.2041C85.8003 12.9551 85.6553 12.7646 85.4648 12.6328C85.2744 12.498 85.043 12.4307 84.7705 12.4307C84.498 12.4307 84.2666 12.498 84.0762 12.6328C83.8857 12.7646 83.7393 12.9551 83.6367 13.2041C83.5371 13.4531 83.4873 13.7549 83.4873 14.1094V14.1182C83.4873 14.4697 83.5371 14.77 83.6367 15.019C83.7393 15.2681 83.8857 15.46 84.0762 15.5947C84.2666 15.7266 84.498 15.7925 84.7705 15.7925ZM88.1631 16.5V11.7275H89.1167V12.4482H89.1914C89.3086 12.1934 89.4814 11.9941 89.71 11.8506C89.9385 11.707 90.2271 11.6353 90.5757 11.6353C91.1118 11.6353 91.522 11.7891 91.8062 12.0967C92.0903 12.4043 92.2324 12.8423 92.2324 13.4106V16.5H91.2744V13.6348C91.2744 13.2363 91.1909 12.9404 91.0239 12.7471C90.8599 12.5508 90.6021 12.4526 90.2505 12.4526C90.019 12.4526 89.8184 12.5039 89.6484 12.6064C89.4785 12.7061 89.3467 12.8496 89.2529 13.0371C89.1621 13.2217 89.1167 13.4429 89.1167 13.7007V16.5H88.1631Z" fill="black"/>
<path d="M38.0029 26.1299V24.8447H40.6963C41.3617 24.8447 41.8766 24.6738 42.2412 24.332C42.6104 23.9857 42.7949 23.5072 42.7949 22.8965V22.8828C42.7949 22.263 42.6104 21.7822 42.2412 21.4404C41.8766 21.0986 41.3617 20.9277 40.6963 20.9277H38.0029V19.6357H41.0791C41.7262 19.6357 42.2936 19.7725 42.7812 20.0459C43.2734 20.3148 43.6585 20.693 43.9365 21.1807C44.2145 21.6637 44.3535 22.2266 44.3535 22.8691V22.8828C44.3535 23.5254 44.2145 24.0928 43.9365 24.585C43.6585 25.0726 43.2734 25.4531 42.7812 25.7266C42.2936 25.9954 41.7262 26.1299 41.0791 26.1299H38.0029ZM37.2373 29.5V19.6357H38.7686V29.5H37.2373ZM45.7566 29.5V19.1641H47.24V29.5H45.7566ZM51.0151 29.623C50.5457 29.623 50.1241 29.5342 49.7504 29.3564C49.3813 29.1742 49.0896 28.9167 48.8754 28.584C48.6612 28.2513 48.5541 27.8617 48.5541 27.415V27.4014C48.5541 26.9548 48.6612 26.5742 48.8754 26.2598C49.0942 25.9453 49.4086 25.6992 49.8188 25.5215C50.2335 25.3392 50.7348 25.2298 51.3227 25.1934L54.0639 25.0293V26.0752L51.5278 26.2393C51.0174 26.2712 50.6414 26.3805 50.3998 26.5674C50.1583 26.7497 50.0375 27.0072 50.0375 27.3398V27.3535C50.0375 27.6908 50.1674 27.9574 50.4272 28.1533C50.687 28.3447 51.0151 28.4404 51.4116 28.4404C51.7807 28.4404 52.1088 28.3675 52.3959 28.2217C52.6876 28.0713 52.9155 27.8708 53.0795 27.6201C53.2436 27.3649 53.3256 27.0778 53.3256 26.7588V24.4209C53.3256 24.0107 53.198 23.6986 52.9428 23.4844C52.6922 23.2656 52.3185 23.1562 51.8217 23.1562C51.407 23.1562 51.0675 23.2292 50.8032 23.375C50.5434 23.5208 50.3702 23.7259 50.2836 23.9902L50.27 24.0107H48.8413L48.8481 23.9629C48.9073 23.5527 49.0691 23.1973 49.3334 22.8965C49.6023 22.5911 49.9532 22.3542 50.3862 22.1855C50.8237 22.0169 51.3227 21.9326 51.8832 21.9326C52.5076 21.9326 53.0362 22.0329 53.4692 22.2334C53.9067 22.4294 54.2371 22.7142 54.4604 23.0879C54.6883 23.457 54.8022 23.9014 54.8022 24.4209V29.5H53.3256V28.4473H53.2163C53.0704 28.6979 52.8881 28.9121 52.6694 29.0898C52.4506 29.263 52.2023 29.3952 51.9243 29.4863C51.6463 29.5775 51.3432 29.623 51.0151 29.623ZM56.9025 32.1113C56.8114 32.1113 56.7134 32.1068 56.6086 32.0977C56.5037 32.0931 56.4035 32.0863 56.3078 32.0771V30.9082C56.3807 30.9173 56.4604 30.9242 56.547 30.9287C56.6382 30.9333 56.7248 30.9355 56.8068 30.9355C57.1532 30.9355 57.4334 30.8535 57.6476 30.6895C57.8618 30.5299 58.0236 30.2633 58.133 29.8896L58.2423 29.5068L55.549 22.0762H57.1554L59.2541 28.7686L58.7892 28.0029H59.3566L58.8986 28.7686L60.9904 22.0762H62.5558L59.7941 29.7803C59.5845 30.3727 59.352 30.8376 59.0968 31.1748C58.8416 31.5166 58.5386 31.7581 58.1877 31.8994C57.8367 32.0407 57.4084 32.1113 56.9025 32.1113ZM70.4479 29.7393C69.705 29.7393 69.0579 29.623 68.5064 29.3906C67.955 29.1536 67.5198 28.8255 67.2008 28.4062C66.8818 27.987 66.6995 27.5016 66.6539 26.9502L66.6471 26.8613H68.1578L68.1646 26.9365C68.1965 27.2327 68.3128 27.4902 68.5133 27.709C68.7184 27.9277 68.9918 28.0986 69.3336 28.2217C69.6799 28.3447 70.0742 28.4062 70.5162 28.4062C70.9309 28.4062 71.3001 28.3402 71.6236 28.208C71.9472 28.0758 72.2001 27.8936 72.3824 27.6611C72.5693 27.4287 72.6627 27.1621 72.6627 26.8613V26.8545C72.6627 26.4762 72.5191 26.1618 72.232 25.9111C71.9449 25.6605 71.4755 25.4645 70.8238 25.3232L69.7437 25.0977C68.7457 24.8835 68.0188 24.5439 67.5631 24.0791C67.1074 23.6097 66.8795 23.0104 66.8795 22.2812V22.2744C66.884 21.7048 67.0367 21.2035 67.3375 20.7705C67.6428 20.3376 68.0644 20.0003 68.6021 19.7588C69.1399 19.5173 69.7574 19.3965 70.4547 19.3965C71.152 19.3965 71.7604 19.5173 72.2799 19.7588C72.804 19.9958 73.2164 20.3193 73.5172 20.7295C73.8225 21.1396 73.9934 21.6022 74.0299 22.1172L74.0367 22.2061H72.5396L72.526 22.1172C72.485 21.8483 72.3733 21.609 72.191 21.3994C72.0133 21.1898 71.774 21.0257 71.4732 20.9072C71.177 20.7842 70.8307 20.7249 70.4342 20.7295C70.0514 20.7295 69.7096 20.7887 69.4088 20.9072C69.108 21.0212 68.8687 21.1875 68.691 21.4062C68.5178 21.625 68.4312 21.8893 68.4312 22.1992V22.2061C68.4312 22.5706 68.5702 22.876 68.8482 23.1221C69.1308 23.3636 69.5888 23.5527 70.2223 23.6895L71.3023 23.9287C71.9905 24.0745 72.5488 24.2682 72.9771 24.5098C73.4055 24.7513 73.7177 25.0498 73.9137 25.4053C74.1142 25.7562 74.2145 26.1755 74.2145 26.6631V26.6699C74.2145 27.2988 74.0595 27.8434 73.7496 28.3037C73.4443 28.7594 73.009 29.1126 72.4439 29.3633C71.8788 29.6139 71.2135 29.7393 70.4479 29.7393ZM78.3929 29.5479C77.5817 29.5479 76.9938 29.3929 76.6292 29.083C76.2692 28.7686 76.0892 28.2559 76.0892 27.5449V23.2451H74.9271V22.0762H76.0892V20.2031H77.6068V22.0762H79.1995V23.2451H77.6068V27.1826C77.6068 27.5837 77.6865 27.873 77.846 28.0508C78.0055 28.224 78.2698 28.3105 78.639 28.3105C78.7484 28.3105 78.8418 28.3083 78.9193 28.3037C79.0013 28.2992 79.0947 28.2923 79.1995 28.2832V29.4727C79.081 29.4909 78.9534 29.5068 78.8167 29.5205C78.68 29.5387 78.5387 29.5479 78.3929 29.5479ZM83.5284 29.6436C82.8037 29.6436 82.1771 29.4886 81.6485 29.1787C81.1244 28.8688 80.7211 28.4268 80.4385 27.8525C80.156 27.2738 80.0147 26.5879 80.0147 25.7949V25.7812C80.0147 24.9837 80.156 24.2979 80.4385 23.7236C80.7256 23.1494 81.1312 22.7074 81.6553 22.3975C82.184 22.0876 82.8083 21.9326 83.5284 21.9326C84.253 21.9326 84.8773 22.0876 85.4014 22.3975C85.9255 22.7028 86.3288 23.1449 86.6114 23.7236C86.8985 24.2979 87.042 24.9837 87.042 25.7812V25.7949C87.042 26.5879 86.8985 27.2738 86.6114 27.8525C86.3288 28.4268 85.9255 28.8688 85.4014 29.1787C84.8819 29.4886 84.2575 29.6436 83.5284 29.6436ZM83.5284 28.3994C83.9522 28.3994 84.3122 28.2969 84.6084 28.0918C84.9047 27.8822 85.1302 27.5837 85.2852 27.1963C85.4401 26.8089 85.5176 26.3418 85.5176 25.7949V25.7812C85.5176 25.2298 85.4401 24.7604 85.2852 24.373C85.1302 23.9857 84.9047 23.6895 84.6084 23.4844C84.3122 23.2747 83.9522 23.1699 83.5284 23.1699C83.1045 23.1699 82.7445 23.2747 82.4483 23.4844C82.1521 23.6895 81.9242 23.9857 81.7647 24.373C81.6097 24.7604 81.5323 25.2298 81.5323 25.7812V25.7949C81.5323 26.3418 81.6097 26.8089 81.7647 27.1963C81.9242 27.5837 82.1521 27.8822 82.4483 28.0918C82.7445 28.2969 83.1045 28.3994 83.5284 28.3994ZM88.3357 29.5V22.0762H89.8191V23.1973H89.9353C90.0675 22.8008 90.2999 22.4932 90.6326 22.2744C90.9698 22.0557 91.3845 21.9463 91.8767 21.9463C91.9998 21.9463 92.1205 21.9531 92.239 21.9668C92.3575 21.9805 92.4532 21.9964 92.5261 22.0146V23.3818C92.394 23.3545 92.2618 23.334 92.1297 23.3203C92.002 23.3066 91.8676 23.2998 91.7263 23.2998C91.3481 23.2998 91.0154 23.3727 90.7283 23.5186C90.4457 23.6644 90.2224 23.8695 90.0584 24.1338C89.8989 24.3936 89.8191 24.7035 89.8191 25.0635V29.5H88.3357ZM96.4106 29.6436C95.686 29.6436 95.0639 29.4886 94.5444 29.1787C94.0249 28.8643 93.6238 28.4199 93.3413 27.8457C93.0633 27.2715 92.9243 26.5924 92.9243 25.8086V25.8018C92.9243 25.027 93.0633 24.3503 93.3413 23.7715C93.6238 23.1927 94.0203 22.7415 94.5307 22.418C95.0457 22.0944 95.6473 21.9326 96.3354 21.9326C97.0281 21.9326 97.6229 22.0876 98.1196 22.3975C98.6209 22.7074 99.006 23.1426 99.2749 23.7031C99.5438 24.2591 99.6782 24.9108 99.6782 25.6582V26.1777H93.6763V25.1182H98.9399L98.229 26.1025V25.5078C98.229 24.9792 98.147 24.5417 97.9829 24.1953C97.8234 23.8444 97.6024 23.5824 97.3198 23.4092C97.0373 23.236 96.7114 23.1494 96.3423 23.1494C95.9731 23.1494 95.6427 23.2406 95.3511 23.4229C95.0639 23.6006 94.8361 23.8649 94.6675 24.2158C94.5034 24.5667 94.4214 24.9974 94.4214 25.5078V26.1025C94.4214 26.5902 94.5034 27.0072 94.6675 27.3535C94.8315 27.6999 95.0639 27.9642 95.3647 28.1465C95.6701 28.3288 96.0301 28.4199 96.4448 28.4199C96.7638 28.4199 97.0373 28.3766 97.2651 28.29C97.4975 28.1989 97.6867 28.0872 97.8325 27.9551C97.9829 27.8229 98.0854 27.693 98.1401 27.5654L98.1675 27.5107H99.603L99.5893 27.5723C99.5255 27.8184 99.4139 28.0645 99.2544 28.3105C99.0949 28.5521 98.883 28.7731 98.6186 28.9736C98.3589 29.1742 98.0444 29.3359 97.6753 29.459C97.3107 29.582 96.8891 29.6436 96.4106 29.6436Z" fill="black"/>
<path d="M18.8051 19.4617L9.08984 30.0059C9.09076 30.0078 9.09076 30.0106 9.09167 30.0125C9.39005 31.1574 10.412 32 11.6256 32C12.1111 32 12.5664 31.8656 12.957 31.6305L12.988 31.6118L23.9232 25.1593L18.8051 19.4617Z" fill="#EA4335"/>
<path d="M28.6332 17.6662L28.624 17.6597L23.9029 14.8612L18.584 19.7013L23.922 25.1582L28.6177 22.3878C29.4407 21.9324 30.0001 21.045 30.0001 20.0223C30.0001 19.0052 29.4489 18.1225 28.6332 17.6662Z" fill="#FBBC04"/>
<path d="M9.08942 9.99325C9.03102 10.2135 9 10.4449 9 10.6838V29.3163C9 29.5552 9.03102 29.7866 9.09034 30.0059L19.1386 19.7313L9.08942 9.99325Z" fill="#4285F4"/>
<path d="M18.8767 20L23.9044 14.8594L12.982 8.3836C12.5851 8.14005 12.1215 8.00009 11.6261 8.00009C10.4125 8.00009 9.38865 8.84456 9.09027 9.99043C9.09027 9.99136 9.08936 9.9923 9.08936 9.99323L18.8767 20Z" fill="#34A853"/>
</svg>
